<svg height="713" viewBox="0 0 1440 713" width="1440" xmlns="http://www.w3.org/2000/svg" xmlns:xlink="http://www.w3.org/1999/xlink"><defs><linearGradient id="a" x1=".257813%" x2="101.257813%" y1="49.75%" y2="49.75%"><stop offset="0" stop-color="#fd7aa4"/><stop offset="1" stop-color="#fdaaa0"/></linearGradient><path id="b" d="m143.31918 765.380986c189.781335 128.46365 390.693019 211.773997 716.782897 229.802597 326.089883 18.028597 463.174963-141.193046 741.102363-149.200184 277.92741-8.007138 355.92932 232.722481 555.96832 111.831349 133.35934-80.594087 133.35934-349.868759 0-807.824016h-2013.85358c-126.5208891 324.617737-126.5208891 529.747821 0 615.390254z"/><mask id="c" fill="#fff"><path d="m0 0h1440v736h-1440z" fill="none"/></mask><mask id="d" fill="#fff"><use fill="none" xlink:href="#b"/></mask></defs><g fill="none" fill-rule="evenodd" mask="url(#c)"><g transform="translate(-241 -326)"><use fill="url(#a)" fill-rule="evenodd" transform="matrix(.99026807 -.1391731 .1391731 .99026807 -68.568603 166.019494)" xlink:href="#b"/><g fill="#fff" fill-opacity=".2" fill-rule="nonzero"><path d="m1752.47063 1073.31842c.44445.4409.44445 1.32272.44445 1.76363v52.90909c0 7.49546-5.77778 13.22728-13.33334 13.22728h-53.33333c-7.55556 0-13.33333-5.73182-13.33333-13.22728v-70.54545c0-7.49546 5.77777-13.22727 13.33333-13.22727h35.55555c.44445 0 1.33334 0 1.77778.4409.44445 0 .88889.44091 1.33334.88182l26.66666 26.45455c.44445.44091.44445.88182.88889 1.32273zm-26.06984-14.14206v11.33178h11.42857zm12.93061 73.42991c2.66449 0 4.44082-1.76272 4.44082-4.40681v-48.47481h-22.20408c-2.66449 0-4.44082-1.76272-4.44082-4.40681v-22.034h-31.08571c-2.66449 0-4.44082 1.76272-4.44082 4.4068v70.50882c0 2.64409 1.77633 4.40681 4.44082 4.40681zm-8.81632-26.74299c0 2.65163-1.78286 4.41939-4.45715 4.41939h-8.91428v8.83878c0 2.65164-1.78286 4.4194-4.45715 4.4194-2.67428 0-4.45714-1.76776-4.45714-4.4194v-8.83878h-8.91428c-2.67429 0-4.45715-1.76776-4.45715-4.41939 0-2.65164 1.78286-4.4194 4.45715-4.4194h8.91428v-8.83878c0-2.65164 1.78286-4.41939 4.45714-4.41939 2.67429 0 4.45715 1.76775 4.45715 4.41939v8.83878h8.91428c2.67429 0 4.45715 1.76776 4.45715 4.4194z" mask="url(#d)" opacity=".93" transform="matrix(.8480481 .52991926 -.52991926 .8480481 839.333245 -741.666053)"/><path d="m1750.71405 909.8575c.38333.381818.38333 1.145454.38333 1.527273v45.818181c0 6.49091-4.98333 11.454546-11.5 11.454546h-46c-6.51667 0-11.5-4.963636-11.5-11.454546v-61.090909c0-6.490909 4.98333-11.454545 11.5-11.454545h30.66667c.38333 0 1.15 0 1.53333.381818.38333 0 .76667.381818 1.15.763636l23 22.909091c.38333.381819.38333.763637.76667 1.145455zm-22.48524-12.246729v9.813084h9.85714zm11.15265 63.588785c2.29812 0 3.8302-1.52648 3.8302-3.816199v-41.978194h-19.15102c-2.29812 0-3.8302-1.526479-3.8302-3.816199v-19.080997h-26.81143c-2.29812 0-3.8302 1.52648-3.8302 3.8162v61.05919c0 2.289719 1.53208 3.816199 3.8302 3.816199zm-7.60408-23.158879c0 2.296262-1.53772 3.827103-3.84429 3.827103h-7.68857v7.654206c0 2.296262-1.53771 3.827103-3.84428 3.827103-2.30658 0-3.84429-1.530841-3.84429-3.827103v-7.654206h-7.68857c-2.30657 0-3.84429-1.530841-3.84429-3.827103 0-2.296261 1.53772-3.827102 3.84429-3.827102h7.68857v-7.654206c0-2.296262 1.53771-3.827103 3.84429-3.827103 2.30657 0 3.84428 1.530841 3.84428 3.827103v7.654206h7.68857c2.30657 0 3.84429 1.530841 3.84429 3.827102z" mask="url(#d)" opacity=".78" transform="matrix(.98162718 .190809 -.190809 .98162718 208.353315 -310.516913)"/><path d="m1738.09172 645.695312c.41111.413636.41111 1.240909.41111 1.654545v49.636364c0 7.031818-5.34444 12.409091-12.33333 12.409091h-49.33334c-6.98888 0-12.33333-5.377273-12.33333-12.409091v-66.181818c0-7.031819 5.34445-12.409091 12.33333-12.409091h32.88889c.41111 0 1.23334 0 1.64445.413636.41111 0 .82222.413636 1.23333.827273l24.66667 24.818182c.41111.413636.41111.827272.82222 1.240909zm-24.1146-13.26729v10.630841h10.57143zm11.96081 68.88785c2.46466 0 4.10776-1.653686 4.10776-4.134216v-45.476376h-20.53878c-2.46465 0-4.10775-1.653686-4.10775-4.134216v-20.671079h-28.75429c-2.46465 0-4.10775 1.653686-4.10775 4.134215v66.147456c0 2.48053 1.6431 4.134216 4.10775 4.134216zm-8.1551-25.088785c0 2.487617-1.64914 4.146028-4.12286 4.146028h-8.24571v8.292056c0 2.487617-1.64914 4.146028-4.12286 4.146028-2.47371 0-4.12285-1.658411-4.12285-4.146028v-8.292056h-8.24572c-2.47371 0-4.12286-1.658411-4.12286-4.146028s1.64915-4.146028 4.12286-4.146028h8.24572v-8.292056c0-2.487617 1.64914-4.146028 4.12285-4.146028 2.47372 0 4.12286 1.658411 4.12286 4.146028v8.292056h8.24571c2.47372 0 4.12286 1.658411 4.12286 4.146028z" mask="url(#d)" opacity=".85" transform="matrix(-.8571673 -.51503807 .51503807 -.8571673 2818.044056 2109.303407)"/><path d="m1609.95231 531.589734c.4.395455.4 1.186364.4 1.581818v47.454546c0 6.722727-5.2 11.863636-12 11.863636h-48c-6.8 0-12-5.140909-12-11.863636v-63.272728c0-6.722727 5.2-11.863636 12-11.863636h32c.4 0 1.2 0 1.6.395455.4 0 .8.395454 1.2.790909l24 23.727272c.4.395455.4.79091.8 1.186364zm-23.46286-12.684112v10.163551h10.28572zm11.63756 65.859813c2.39804 0 3.99673-1.580997 3.99673-3.952492v-43.477415h-19.98367c-2.39804 0-3.99674-1.580996-3.99674-3.952492v-19.762461h-27.97714c-2.39804 0-3.99674 1.580997-3.99674 3.952492v63.239876c0 2.371495 1.5987 3.952492 3.99674 3.952492zm-7.9347-23.985981c0 2.378271-1.60457 3.963785-4.01143 3.963785h-8.02285v7.92757c0 2.378271-1.60458 3.963785-4.01143 3.963785-2.40686 0-4.01143-1.585514-4.01143-3.963785v-7.92757h-8.02286c-2.40686 0-4.01143-1.585514-4.01143-3.963785s1.60457-3.963785 4.01143-3.963785h8.02286v-7.92757c0-2.378271 1.60457-3.963785 4.01143-3.963785 2.40685 0 4.01143 1.585514 4.01143 3.963785v7.92757h8.02285c2.40686 0 4.01143 1.585514 4.01143 3.963785z" mask="url(#d)" opacity=".91" transform="matrix(-.58778525 -.80901699 .80901699 -.58778525 2055.591358 2145.355579)"/><path d="m1685.13226 412.004606c.58333.577273.58333 1.731818.58333 2.309091v69.272727c0 9.813637-7.58333 17.318182-17.5 17.318182h-70c-9.91666 0-17.5-7.504545-17.5-17.318182v-92.363636c0-9.813636 7.58334-17.318182 17.5-17.318182h46.66667c.58333 0 1.75 0 2.33333.577273.58334 0 1.16667.577273 1.75 1.154545l35 34.636364c.58334.577273.58334 1.154546 1.16667 1.731818zm-34.21667-18.515888v14.836449h15zm16.97143 96.140187c3.49715 0 5.82857-2.307892 5.82857-5.76973v-63.46703h-29.14285c-3.49715 0-5.82857-2.307892-5.82857-5.76973v-28.84865h-40.8c-3.49715 0-5.82858 2.307892-5.82858 5.76973v92.31568c0 3.461838 2.33143 5.76973 5.82858 5.76973zm-11.57143-35.014018c0 3.471729-2.34 5.786215-5.85 5.786215h-11.7v11.572429c0 3.471729-2.34 5.786215-5.85 5.786215s-5.85-2.314486-5.85-5.786215v-11.572429h-11.7c-3.51 0-5.85-2.314486-5.85-5.786215s2.34-5.786215 5.85-5.786215h11.7v-11.57243c0-3.471729 2.34-5.786215 5.85-5.786215s5.85 2.314486 5.85 5.786215v11.57243h11.7c3.51 0 5.85 2.314486 5.85 5.786215z" mask="url(#d)" opacity=".72" transform="matrix(-.90630779 -.42261826 .42261826 -.90630779 2928.55643 1524.054542)"/><path d="m1605.36304 1057.89839c.57222.57272.57222 1.71818.57222 2.29091v68.72727c0 9.73636-7.43889 17.18182-17.16667 17.18182h-68.66666c-9.72778 0-17.16667-7.44546-17.16667-17.18182v-91.63637c0-9.73636 7.43889-17.18181 17.16667-17.18181h45.77777c.57223 0 1.71667 0 2.28889.57272.57222 0 1.14445.57273 1.71667 1.14546l34.33333 34.36363c.57222.57273.57222 1.14546 1.14445 1.71819zm-33.56492-18.3701v14.71963h14.71428zm16.64816 95.38318c3.43053 0 5.71755-2.28972 5.71755-5.7243v-62.96729h-28.58775c-3.43053 0-5.71756-2.28972-5.71756-5.7243v-28.62149h-40.02285c-3.43053 0-5.71755 2.28972-5.71755 5.7243v91.58878c0 3.43458 2.28702 5.7243 5.71755 5.7243zm-11.35102-34.73832c0 3.4444-2.29543 5.74066-5.73857 5.74066h-11.47714v11.48131c0 3.44439-2.29543 5.74065-5.73858 5.74065-3.44314 0-5.73857-2.29626-5.73857-5.74065v-11.48131h-11.47714c-3.44314 0-5.73857-2.29626-5.73857-5.74066 0-3.44439 2.29543-5.74065 5.73857-5.74065h11.47714v-11.48131c0-3.44439 2.29543-5.74065 5.73857-5.74065 3.44315 0 5.73858 2.29626 5.73858 5.74065v11.48131h11.47714c3.44314 0 5.73857 2.29626 5.73857 5.74065z" mask="url(#d)" opacity=".9" transform="matrix(-.95105652 -.30901699 .30901699 -.95105652 2698.095233 2593.533077)"/><path d="m1569.99364 909.646842c.60555.6.60555 1.8.60555 2.4v72c0 10.2-7.87222 17.999998-18.16666 17.999998h-72.66667c-10.29445 0-18.16667-7.799998-18.16667-17.999998v-96c0-10.2 7.87222-18 18.16667-18h48.44444c.60556 0 1.81667 0 2.42223.6.60555 0 1.21111.6 1.81666 1.2l36.33334 36c.60555.6.60555 1.2 1.21111 1.8zm-35.52016-19.244859v15.42056h15.57143zm17.61796 99.925233c3.63036 0 6.05061-2.398754 6.05061-5.996884v-65.965733h-30.25306c-3.63037 0-6.05061-2.398753-6.05061-5.996884v-29.984424h-42.35429c-3.63037 0-6.05061 2.398754-6.05061 5.996885v95.950156c0 3.59813 2.42024 5.996884 6.05061 5.996884zm-12.01225-36.392523c0 3.608411-2.42914 6.014019-6.07286 6.014019h-12.14571v12.028037c0 3.608411-2.42914 6.014019-6.07286 6.014019-3.64371 0-6.07285-2.405608-6.07285-6.014019v-12.028037h-12.14572c-3.64371 0-6.07286-2.405608-6.07286-6.014019s2.42915-6.014019 6.07286-6.014019h12.14572v-12.028037c0-3.608411 2.42914-6.014019 6.07285-6.014019 3.64372 0 6.07286 2.405608 6.07286 6.014019v12.028037h12.14571c3.64372 0 6.07286 2.405608 6.07286 6.014019z" mask="url(#d)" opacity=".84" transform="matrix(.15643447 .98768834 -.98768834 .15643447 2203.451578 -707.81664)"/><path d="m1474.68257 814.507217c.46667.463637.46667 1.390909.46667 1.854546v55.636363c0 7.881818-6.06667 13.909091-14 13.909091h-56c-7.93334 0-14-6.027273-14-13.909091v-74.181818c0-7.881818 6.06666-13.909091 14-13.909091h37.33333c.46667 0 1.4 0 1.86667.463637.46666 0 .93333.463636 1.4.927272l28 27.818182c.46666.463636.46666.927273.93333 1.390909zm-27.37333-14.871028v11.915888h12zm13.57714 77.214953c2.79772 0 4.66286-1.853582 4.66286-4.633956v-50.97352h-23.31429c-2.79771 0-4.66285-1.853583-4.66285-4.633957v-23.169782h-32.64c-2.79772 0-4.66286 1.853583-4.66286 4.633957v74.143302c0 2.780374 1.86514 4.633956 4.66286 4.633956zm-9.25714-28.121495c0 2.788318-1.872 4.647196-4.68 4.647196h-9.36v9.294393c0 2.788318-1.872 4.647196-4.68 4.647196s-4.68-1.858878-4.68-4.647196v-9.294393h-9.36c-2.808 0-4.68-1.858878-4.68-4.647196s1.872-4.647196 4.68-4.647196h9.36v-9.294393c0-2.788317 1.872-4.647196 4.68-4.647196s4.68 1.858879 4.68 4.647196v9.294393h9.36c2.808 0 4.68 1.858878 4.68 4.647196z" mask="url(#d)" opacity=".78" transform="matrix(-.30901699 .95105652 -.95105652 -.30901699 2670.060657 -270.098186)"/><path d="m1489.84165 648.488656c.48889.486364.48889 1.459091.48889 1.945455v58.363636c0 8.268182-6.35556 14.590909-14.66667 14.590909h-58.66667c-8.31111 0-14.66666-6.322727-14.66666-14.590909v-77.818182c0-8.268182 6.35555-14.590909 14.66666-14.590909h39.11111c.48889 0 1.46667 0 1.95556.486364.48889 0 .97778.486363 1.46667.972727l29.33333 29.181818c.48889.486364.48889.972727.97778 1.459091zm-28.67683-15.6v12.5h12.57143zm14.22367 81c2.93094 0 4.8849-1.944444 4.8849-4.861111v-53.472222h-24.42449c-2.93094 0-4.8849-1.944445-4.8849-4.861111v-24.305556h-34.19428c-2.93094 0-4.8849 1.944445-4.8849 4.861111v77.777778c0 2.916667 1.95396 4.861111 4.8849 4.861111zm-9.69795-29.5c0 2.925-1.96115 4.875-4.90286 4.875h-9.80572v9.75c0 2.925-1.96114 4.875-4.90285 4.875-2.94172 0-4.90286-1.95-4.90286-4.875v-9.75h-9.80571c-2.94172 0-4.90286-1.95-4.90286-4.875s1.96114-4.875 4.90286-4.875h9.80571v-9.75c0-2.925 1.96114-4.875 4.90286-4.875 2.94171 0 4.90285 1.95 4.90285 4.875v9.75h9.80572c2.94171 0 4.90286 1.95 4.90286 4.875z" mask="url(#d)" opacity=".99" transform="matrix(.22495105 .97437006 -.97437006 .22495105 1773.69641 -890.064682)"/><path d="m1444.91498 538.502395c.43889.440909.43889 1.322727.43889 1.763636v52.909091c0 7.495455-5.70556 13.227273-13.16667 13.227273h-52.66667c-7.46111 0-13.16666-5.731818-13.16666-13.227273v-70.545454c0-7.495455 5.70555-13.227273 13.16666-13.227273h35.11112c.43888 0 1.31666 0 1.75555.440909.43889 0 .87778.440909 1.31667.881818l26.33333 26.454546c.43889.440909.43889.881818.87778 1.322727zm-25.74397-14.142056v11.331775h11.28572zm12.76898 73.429906c2.63118 0 4.38531-1.76272 4.38531-4.406801v-48.474819h-21.92653c-2.63119 0-4.38531-1.76272-4.38531-4.406801v-22.034009h-30.69714c-2.63119 0-4.38531 1.762721-4.38531 4.406802v70.508827c0 2.644081 1.75412 4.406801 4.38531 4.406801zm-8.70612-26.74299c0 2.651635-1.76057 4.419392-4.40143 4.419392h-8.80286v8.838785c0 2.651636-1.76057 4.419393-4.40143 4.419393-2.64085 0-4.40142-1.767757-4.40142-4.419393v-8.838785h-8.80286c-2.64086 0-4.40143-1.767757-4.40143-4.419392 0-2.651636 1.76057-4.419393 4.40143-4.419393h8.80286v-8.838785c0-2.651635 1.76057-4.419392 4.40142-4.419392 2.64086 0 4.40143 1.767757 4.40143 4.419392v8.838785h8.80286c2.64086 0 4.40143 1.767757 4.40143 4.419393z" mask="url(#d)" opacity=".97" transform="matrix(.15643447 .98768834 -.98768834 .15643447 1736.963561 -917.918242)"/><path d="m1503.98834 339.803647c.38333.381818.38333 1.145455.38333 1.527273v45.818182c0 6.490909-4.98333 11.454545-11.5 11.454545h-46c-6.51667 0-11.5-4.963636-11.5-11.454545v-61.090909c0-6.49091 4.98333-11.454546 11.5-11.454546h30.66667c.38333 0 1.15 0 1.53333.381818.38333 0 .76667.381818 1.15.763637l23 22.909091c.38333.381818.38333.763636.76667 1.145454zm-22.48524-12.246729v9.813084h9.85714zm11.15265 63.588785c2.29812 0 3.8302-1.52648 3.8302-3.816199v-41.978193h-19.15102c-2.29812 0-3.8302-1.52648-3.8302-3.8162v-19.080997h-26.81143c-2.29812 0-3.8302 1.52648-3.8302 3.8162v61.05919c0 2.289719 1.53208 3.816199 3.8302 3.816199zm-7.60408-23.158878c0 2.296261-1.53772 3.827102-3.84429 3.827102h-7.68857v7.654206c0 2.296262-1.53771 3.827103-3.84428 3.827103-2.30658 0-3.84429-1.530841-3.84429-3.827103v-7.654206h-7.68857c-2.30657 0-3.84429-1.530841-3.84429-3.827102 0-2.296262 1.53772-3.827103 3.84429-3.827103h7.68857v-7.654206c0-2.296261 1.53771-3.827103 3.84429-3.827103 2.30657 0 3.84428 1.530842 3.84428 3.827103v7.654206h7.68857c2.30657 0 3.84429 1.530841 3.84429 3.827103z" mask="url(#d)" opacity=".96" transform="matrix(.99026807 -.1391731 .1391731 .99026807 -35.324945 208.03704)"/><path d="m1597.23593 254.143391c.54445.540909.54445 1.622727.54445 2.163636v64.909091c0 9.195455-7.07778 16.227273-16.33333 16.227273h-65.33334c-9.25555 0-16.33333-7.031818-16.33333-16.227273v-86.545454c0-9.195455 7.07778-16.227273 16.33333-16.227273h43.55556c.54444 0 1.63333 0 2.17778.540909.54444 0 1.08888.540909 1.63333 1.081818l32.66667 32.454546c.54444.540909.54444 1.081818 1.08888 1.622727zm-31.93555-17.349533v13.901869h14zm15.84 90.084112c3.264 0 5.44-2.162513 5.44-5.406282v-59.469107h-27.2c-3.264 0-5.44-2.162513-5.44-5.406282v-27.031413h-38.08c-3.264 0-5.44 2.162513-5.44 5.406283v86.500519c0 3.243769 2.176 5.406282 5.44 5.406282zm-10.8-32.808411c0 3.253038-2.184 5.421729-5.46 5.421729h-10.92v10.843458c0 3.253037-2.184 5.421729-5.46 5.421729s-5.46-2.168692-5.46-5.421729v-10.843458h-10.92c-3.276 0-5.46-2.168691-5.46-5.421729 0-3.253037 2.184-5.421729 5.46-5.421729h10.92v-10.843458c0-3.253037 2.184-5.421729 5.46-5.421729s5.46 2.168692 5.46 5.421729v10.843458h10.92c3.276 0 5.46 2.168692 5.46 5.421729z" mask="url(#d)" opacity=".95" transform="matrix(-.61566148 .78801075 -.78801075 -.61566148 2721.327171 -771.393164)"/><path d="m1327.25029 1077.92116c.55556.55.55556 1.65.55556 2.2v66c0 9.35-7.22223 16.5-16.66667 16.5h-66.66667c-9.44444 0-16.66666-7.15-16.66666-16.5v-88c0-9.35 7.22222-16.5 16.66666-16.5h44.44445c.55555 0 1.66666 0 2.22222.55.55555 0 1.11111.55 1.66667 1.1l33.33333 33c.55555.55.55555 1.1 1.11111 1.65zm-32.5873-17.64112v14.13551h14.28571zm16.16326 91.59813c3.33062 0 5.55102-2.19886 5.55102-5.49715v-60.46858h-27.7551c-3.33061 0-5.55102-2.19886-5.55102-5.49715v-27.48572h-38.85714c-3.33061 0-5.55102 2.19886-5.55102 5.49714v87.95431c0 3.29829 2.22041 5.49715 5.55102 5.49715zm-11.0204-33.35982c0 3.30771-2.22858 5.51285-5.57143 5.51285h-11.14286v11.02571c0 3.30771-2.22857 5.51285-5.57143 5.51285s-5.57143-2.20514-5.57143-5.51285v-11.02571h-11.14285c-3.34286 0-5.57143-2.20514-5.57143-5.51285s2.22857-5.51285 5.57143-5.51285h11.14285v-11.0257c0-3.30771 2.22857-5.51285 5.57143-5.51285s5.57143 2.20514 5.57143 5.51285v11.0257h11.14286c3.34285 0 5.57143 2.20514 5.57143 5.51285z" mask="url(#d)" opacity=".86" transform="matrix(-.43837115 .89879405 -.89879405 -.43837115 2828.538995 436.774987)"/><path d="m1292.25197 917.77327c.42222.422727.42222 1.268182.42222 1.690909v50.727273c0 7.186363-5.48888 12.681818-12.66666 12.681818h-50.66667c-7.17778 0-12.66667-5.495455-12.66667-12.681818v-67.636364c0-7.186364 5.48889-12.681818 12.66667-12.681818h33.77778c.42222 0 1.26667 0 1.68889.422727.42222 0 .84444.422727 1.26666.845455l25.33334 25.363636c.42222.422727.42222.845455.84444 1.268182zm-24.76635-13.558879v10.864486h10.85715zm12.28408 70.401869c2.53127 0 4.21878-1.690031 4.21878-4.225077v-46.475857h-21.09388c-2.53126 0-4.21877-1.690031-4.21877-4.225078v-21.125389h-29.53143c-2.53127 0-4.21878 1.690031-4.21878 4.225077v67.601247c0 2.535046 1.68751 4.225077 4.21878 4.225077zm-8.37551-25.640186c0 2.542289-1.69371 4.237149-4.23428 4.237149h-8.46857v8.474299c0 2.54229-1.69372 4.23715-4.23429 4.23715s-4.23428-1.69486-4.23428-4.23715v-8.474299h-8.46858c-2.54057 0-4.23428-1.69486-4.23428-4.237149 0-2.54229 1.69371-4.23715 4.23428-4.23715h8.46858v-8.474299c0-2.54229 1.69371-4.23715 4.23428-4.23715s4.23429 1.69486 4.23429 4.23715v8.474299h8.46857c2.54057 0 4.23428 1.69486 4.23428 4.23715z" mask="url(#d)" opacity=".91" transform="matrix(-.5591929 -.82903757 .82903757 -.5591929 1179.990478 2500.158607)"/><path d="m1292.62156 781.698692c.41667.413637.41667 1.240909.41667 1.654546v49.636363c0 7.031819-5.41667 12.409091-12.5 12.409091h-50c-7.08334 0-12.5-5.377272-12.5-12.409091v-66.181818c0-7.031818 5.41666-12.409091 12.5-12.409091h33.33333c.41667 0 1.25 0 1.66667.413637.41666 0 .83333.413636 1.25.827272l25 24.818182c.41666.413637.41666.827273.83333 1.240909zm-24.44048-13.267289v10.630841h10.71429zm12.12245 68.88785c2.49796 0 4.16327-1.653686 4.16327-4.134216v-45.476376h-20.81633c-2.49796 0-4.16326-1.653686-4.16326-4.134216v-20.67108h-29.14286c-2.49796 0-4.16327 1.653687-4.16327 4.134216v66.147456c0 2.48053 1.66531 4.134216 4.16327 4.134216zm-8.2653-25.088785c0 2.487617-1.67143 4.146028-4.17858 4.146028h-8.35714v8.292056c0 2.487617-1.67143 4.146028-4.17857 4.146028s-4.17857-1.658411-4.17857-4.146028v-8.292056h-8.35714c-2.50715 0-4.17858-1.658411-4.17858-4.146028s1.67143-4.146028 4.17858-4.146028h8.35714v-8.292056c0-2.487617 1.67143-4.146028 4.17857-4.146028s4.17857 1.658411 4.17857 4.146028v8.292056h8.35714c2.50715 0 4.17858 1.658411 4.17858 4.146028z" mask="url(#d)" opacity=".73" transform="matrix(.9998477 -.01745241 .01745241 .9998477 -13.768933 22.033992)"/><path d="m1258.7708 514.58716c.58889.586363.58889 1.75909.58889 2.345454v70.363636c0 9.968182-7.65555 17.59091-17.66666 17.59091h-70.66667c-10.01111 0-17.66667-7.622728-17.66667-17.59091v-93.818181c0-9.968182 7.65556-17.590909 17.66667-17.590909h47.11111c.58889 0 1.76667 0 2.35556.586363.58888 0 1.17777.586364 1.76666 1.172727l35.33334 35.181819c.58888.586363.58888 1.172727 1.17777 1.759091zm-34.54254-18.807477v15.070093h15.14286zm17.13306 97.654206c3.53045 0 5.88409-2.344237 5.88409-5.860592v-64.466511h-29.42041c-3.53045 0-5.88408-2.344237-5.88408-5.860592v-29.30296h-41.18857c-3.53045 0-5.88409 2.344237-5.88409 5.860592v93.769471c0 3.516355 2.35364 5.860592 5.88409 5.860592zm-11.68163-35.565421c0 3.526402-2.36228 5.877336-5.90571 5.877336h-11.81143v11.754673c0 3.526402-2.36229 5.877337-5.90572 5.877337-3.54342 0-5.90571-2.350935-5.90571-5.877337v-11.754673h-11.81143c-3.54343 0-5.90571-2.350934-5.90571-5.877336s2.36228-5.877336 5.90571-5.877336h11.81143v-11.754673c0-3.526402 2.36229-5.877337 5.90571-5.877337 3.54343 0 5.90572 2.350935 5.90572 5.877337v11.754673h11.81143c3.54343 0 5.90571 2.350934 5.90571 5.877336z" mask="url(#d)" opacity=".87" transform="matrix(-.69465837 .7193398 -.7193398 -.69465837 2433.089542 47.989084)"/><path d="m1284.56707 333.875242c.6.595454.6 1.786363.6 2.381818v71.454545c0 10.122728-7.8 17.863637-18 17.863637h-72c-10.2 0-18-7.740909-18-17.863637v-95.272727c0-10.122727 7.8-17.863636 18-17.863636h48c.6 0 1.8 0 2.4.595454.6 0 1.2.595455 1.8 1.190909l36 35.727273c.6.595455.6 1.190909 1.2 1.786364zm-35.19429-19.099066v15.303739h15.42858zm17.45633 99.168225c3.59706 0 5.9951-2.380582 5.9951-5.951454v-65.465992h-29.97551c-3.59706 0-5.9951-2.380581-5.9951-5.951454v-29.757269h-41.96571c-3.59706 0-5.99511 2.380582-5.99511 5.951454v95.223261c0 3.570872 2.39805 5.951454 5.99511 5.951454zm-11.90204-36.116823c0 3.581075-2.40686 5.968458-6.01714 5.968458h-12.03429v11.936916c0 3.581075-2.40686 5.968458-6.01714 5.968458-3.61029 0-6.01714-2.387383-6.01714-5.968458v-11.936916h-12.03429c-3.61029 0-6.01714-2.387383-6.01714-5.968458s2.40685-5.968458 6.01714-5.968458h12.03429v-11.936916c0-3.581074 2.40685-5.968458 6.01714-5.968458 3.61028 0 6.01714 2.387384 6.01714 5.968458v11.936916h12.03429c3.61028 0 6.01714 2.387383 6.01714 5.968458z" mask="url(#d)" opacity=".93" transform="matrix(.99939083 .0348995 -.0348995 .99939083 13.316438 -42.747763)"/><path d="m1179.33531 1059.86597c.58333.58181.58333 1.74545.58333 2.32727v69.81818c0 9.89091-7.58333 17.45455-17.5 17.45455h-70c-9.91667 0-17.5-7.56364-17.5-17.45455v-93.09091c0-9.89091 7.58333-17.45454 17.5-17.45454h46.66667c.58333 0 1.75 0 2.33333.58181.58333 0 1.16667.58182 1.75 1.16364l35 34.90909c.58333.58182.58333 1.16364 1.16667 1.74546zm-34.21667-18.66169v14.95327h15zm16.97143 96.8972c3.49714 0 5.82857-2.32606 5.82857-5.81516v-63.96677h-29.14286c-3.49714 0-5.82857-2.32607-5.82857-5.81516v-29.07581h-40.8c-3.49714 0-5.82857 2.32607-5.82857 5.81516v93.04258c0 3.4891 2.33143 5.81516 5.82857 5.81516zm-11.57143-35.28972c0 3.49907-2.34 5.83178-5.85 5.83178h-11.7v11.66355c0 3.49906-2.34 5.83177-5.85 5.83177s-5.85-2.33271-5.85-5.83177v-11.66355h-11.7c-3.51 0-5.85-2.33271-5.85-5.83178s2.34-5.83178 5.85-5.83178h11.7v-11.66355c0-3.49906 2.34-5.83177 5.85-5.83177s5.85 2.33271 5.85 5.83177v11.66355h11.7c3.51 0 5.85 2.33271 5.85 5.83178z" mask="url(#d)" opacity=".79" transform="matrix(-.66913061 .74314483 -.74314483 -.66913061 2688.467376 973.949137)"/><path d="m1078.39367 816.127679c.60556.6.60556 1.8.60556 2.4v72c0 10.2-7.87223 18-18.16667 18h-72.666668c-10.294445 0-18.166667-7.8-18.166667-18v-96c0-10.2 7.872222-18 18.166667-18h48.444448c.60555 0 1.81666 0 2.42222.6.60555 0 1.21111.6 1.81667 1.2l36.33333 36c.60555.6.60555 1.2 1.21111 1.8zm-35.52016-19.24486v15.420561h15.57143zm17.61796 99.925234c3.63037 0 6.05061-2.398754 6.05061-5.996885v-65.965732h-30.25306c-3.63037 0-6.05061-2.398754-6.05061-5.996885v-29.984423h-42.354287c-3.630367 0-6.050612 2.398754-6.050612 5.996885v95.950155c0 3.598131 2.420245 5.996885 6.050612 5.996885zm-12.01224-36.392523c0 3.608411-2.42915 6.014018-6.07286 6.014018h-12.14572v12.028038c0 3.608411-2.42914 6.014018-6.07285 6.014018-3.64372 0-6.07286-2.405607-6.07286-6.014018v-12.028038h-12.14571c-3.64372 0-6.072862-2.405607-6.072862-6.014018 0-3.608412 2.429142-6.014019 6.072862-6.014019h12.14571v-12.028037c0-3.608412 2.42914-6.014019 6.07286-6.014019 3.64371 0 6.07285 2.405607 6.07285 6.014019v12.028037h12.14572c3.64371 0 6.07286 2.405607 6.07286 6.014019z" mask="url(#d)" opacity=".86" transform="matrix(.99862953 .05233596 -.05233596 .99862953 45.498532 -52.463492)"/><path d="m1045.49361 464.252326c.45555.454546.45555 1.363637.45555 1.818182v54.545455c0 7.727272-5.92222 13.636363-13.66666 13.636363h-54.66667c-7.744445 0-13.666667-5.909091-13.666667-13.636363v-72.727273c0-7.727273 5.922222-13.636364 13.666667-13.636364h36.44444c.45556 0 1.36667 0 1.82223.454546.45555 0 .91111.454545 1.36666.909091l27.33334 27.272727c.45555.454545.45555.909091.91111 1.363636zm-26.72159-14.579439v11.682243h11.71429zm13.25388 75.700935c2.7311 0 4.55183-1.817238 4.55183-4.543095v-49.974039h-22.75918c-2.7311 0-4.55184-1.817238-4.55184-4.543095v-22.715472h-31.862853c-2.731102 0-4.551837 1.817237-4.551837 4.543094v72.689512c0 2.725857 1.820735 4.543095 4.551837 4.543095zm-9.03674-27.570094c0 2.733645-1.82743 4.556075-4.56857 4.556075h-9.13714v9.112149c0 2.733645-1.82743 4.556075-4.56857 4.556075-2.74115 0-4.56857-1.82243-4.56857-4.556075v-9.112149h-9.137147c-2.741143 0-4.568571-1.82243-4.568571-4.556075s1.827428-4.556075 4.568571-4.556075h9.137147v-9.112149c0-2.733645 1.82742-4.556075 4.56857-4.556075 2.74114 0 4.56857 1.82243 4.56857 4.556075v9.112149h9.13714c2.74114 0 4.56857 1.82243 4.56857 4.556075z" mask="url(#d)" opacity=".81" transform="matrix(.89879405 -.43837115 .43837115 .89879405 -110.575409 489.549936)"/><path d="m1093.02958 329.632342c.54444.540909.54444 1.622727.54444 2.163636v64.909091c0 9.195455-7.07778 16.227273-16.33333 16.227273h-65.33333c-9.25556 0-16.333338-7.031818-16.333338-16.227273v-86.545454c0-9.195455 7.077778-16.227273 16.333338-16.227273h43.55555c.54445 0 1.63333 0 2.17778.540909.54444 0 1.08889.540909 1.63333 1.081818l32.66667 32.454546c.54444.540909.54444 1.081818 1.08889 1.622727zm-31.93556-17.349533v13.901869h14zm15.84 90.084112c3.264 0 5.44-2.162513 5.44-5.406282v-59.469107h-27.2c-3.264 0-5.44-2.162513-5.44-5.406282v-27.031413h-38.08c-3.264 0-5.44 2.162513-5.44 5.406283v86.500519c0 3.243769 2.176 5.406282 5.44 5.406282zm-10.8-32.808411c0 3.253038-2.184 5.421729-5.46 5.421729h-10.92v10.843458c0 3.253037-2.184 5.421729-5.46 5.421729s-5.46-2.168692-5.46-5.421729v-10.843458h-10.92c-3.276 0-5.46-2.168691-5.46-5.421729 0-3.253037 2.184-5.421729 5.46-5.421729h10.92v-10.843458c0-3.253037 2.184-5.421729 5.46-5.421729s5.46 2.168692 5.46 5.421729v10.843458h10.92c3.276 0 5.46 2.168692 5.46 5.421729z" mask="url(#d)" opacity=".8" transform="matrix(-.61566148 -.78801075 .78801075 -.61566148 1409.169519 1394.162581)"/><path d="m952.876923 993.631505c.444444.440909.444444 1.322727.444444 1.763636v52.909089c0 7.49546-5.777778 13.22727-13.333333 13.22727h-53.333334c-7.555555 0-13.333333-5.73181-13.333333-13.22727v-70.545452c0-7.495455 5.777778-13.227273 13.333333-13.227273h35.555556c.444444 0 1.333333 0 1.777778.440909.444444 0 .888889.440909 1.333333.881818l26.666667 26.454546c.444444.440909.444444.881818.888889 1.322727zm-26.069842-14.142056v11.331775h11.428572zm12.930613 73.429911c2.664489 0 4.440816-1.76273 4.440816-4.40681v-48.47481h-22.204082c-2.66449 0-4.440816-1.762725-4.440816-4.406806v-22.034009h-31.085714c-2.66449 0-4.440817 1.762721-4.440817 4.406802v70.508823c0 2.64408 1.776327 4.40681 4.440817 4.40681zm-8.816327-26.743c0 2.65164-1.782857 4.4194-4.457143 4.4194h-8.914286v8.83878c0 2.65164-1.782857 4.41939-4.457142 4.41939-2.674286 0-4.457143-1.76775-4.457143-4.41939v-8.83878h-8.914286c-2.674286 0-4.457143-1.76776-4.457143-4.4194 0-2.65163 1.782857-4.41939 4.457143-4.41939h8.914286v-8.83878c0-2.65164 1.782857-4.4194 4.457143-4.4194 2.674285 0 4.457142 1.76776 4.457142 4.4194v8.83878h8.914286c2.674286 0 4.457143 1.76776 4.457143 4.41939z" mask="url(#d)" opacity=".72" transform="matrix(-.96592583 .25881905 -.25881905 -.96592583 2057.71391 1755.159834)"/><path d="m893.33192 811.166058c.577778.577273.577778 1.731819.577778 2.309091v69.272728c0 9.813636-7.511111 17.318181-17.333333 17.318181h-69.333334c-9.822222 0-17.333333-7.504545-17.333333-17.318181v-92.363637c0-9.813636 7.511111-17.318182 17.333333-17.318182h46.222223c.577777 0 1.733333 0 2.311111.577273.577778 0 1.155555.577273 1.733333 1.154546l34.666667 34.636363c.577778.577273.577778 1.154546 1.155555 1.731818zm-33.890793-18.515887v14.836448h14.857143zm16.809796 96.140186c3.463836 0 5.773061-2.307892 5.773061-5.76973v-63.46703h-28.865306c-3.463837 0-5.773061-2.307892-5.773061-5.76973v-28.84865h-40.411429c-3.463837 0-5.773061 2.307892-5.773061 5.76973v92.31568c0 3.461838 2.309224 5.76973 5.773061 5.76973zm-11.461225-35.014018c0 3.471729-2.317714 5.786215-5.794286 5.786215h-11.588571v11.57243c0 3.471729-2.317714 5.786215-5.794286 5.786215-3.476571 0-5.794285-2.314486-5.794285-5.786215v-11.57243h-11.588572c-3.476571 0-5.794286-2.314486-5.794286-5.786215s2.317715-5.786215 5.794286-5.786215h11.588572v-11.57243c0-3.471729 2.317714-5.786215 5.794285-5.786215 3.476572 0 5.794286 2.314486 5.794286 5.786215v11.57243h11.588571c3.476572 0 5.794286 2.314486 5.794286 5.786215z" mask="url(#d)" opacity=".74" transform="matrix(.64278761 .76604444 -.76604444 .64278761 941.587356 -346.108485)"/><path d="m936.834437 619.606731c.5.495454.5 1.486363.5 1.981818v59.454545c0 8.422728-6.5 14.863637-15 14.863637h-60c-8.5 0-15-6.440909-15-14.863637v-79.272727c0-8.422727 6.5-14.863636 15-14.863636h40c.5 0 1.5 0 2 .495454.5 0 1 .495455 1.5.990909l30 29.727273c.5.495455.5.990909 1 1.486364zm-29.328571-15.891589v12.733645h12.857143zm14.546939 82.514019c2.997551 0 4.995918-1.98079 4.995918-4.951973v-54.471703h-24.979592c-2.997551 0-4.995918-1.98079-4.995918-4.951973v-24.759865h-34.971429c-2.997551 0-4.995918 1.980789-4.995918 4.951973v79.231568c0 2.971183 1.998367 4.951973 4.995918 4.951973zm-9.918368-30.051402c0 2.979673-2.005714 4.966121-5.014285 4.966121h-10.028572v9.932243c0 2.979673-2.005714 4.966122-5.014285 4.966122-3.008572 0-5.014286-1.986449-5.014286-4.966122v-9.932243h-10.028572c-3.008571 0-5.014285-1.986448-5.014285-4.966121s2.005714-4.966122 5.014285-4.966122h10.028572v-9.932243c0-2.979673 2.005714-4.966121 5.014286-4.966121 3.008571 0 5.014285 1.986448 5.014285 4.966121v9.932243h10.028572c3.008571 0 5.014285 1.986449 5.014285 4.966122z" mask="url(#d)" opacity=".91" transform="matrix(-.48480962 .87461971 -.87461971 -.48480962 1885.933724 171.913601)"/><path d="m1007.22111 273.01651c.50556.504545.50556 1.513636.50556 2.018181v60.545455c0 8.577273-6.57223 15.136364-15.166671 15.136364h-60.666667c-8.594445 0-15.166667-6.559091-15.166667-15.136364v-80.727273c0-8.577272 6.572222-15.136363 15.166667-15.136363h40.444444c.505556 0 1.516667 0 2.022223.504545.505555 0 1.011111.504546 1.516666 1.009091l30.333335 30.272727c.50555.504546.50555 1.009091 1.01111 1.513637zm-29.654445-16.183178v12.96729h13zm14.708572 84.028037c3.030857 0 5.051428-2.017134 5.051428-5.042834v-55.471184h-25.257143c-3.030857 0-5.051428-2.017134-5.051428-5.042835v-25.214175h-35.36c-3.030857 0-5.051429 2.017134-5.051429 5.042835v80.685359c0 3.0257 2.020572 5.042834 5.051429 5.042834zm-10.028572-30.602803c0 3.034345-2.028 5.057243-5.07 5.057243h-10.14v10.114486c0 3.034345-2.028 5.057243-5.07 5.057243s-5.07-2.022898-5.07-5.057243v-10.114486h-10.14c-3.042 0-5.07-2.022898-5.07-5.057243 0-3.034346 2.028-5.057243 5.07-5.057243h10.14v-10.114486c0-3.034346 2.028-5.057243 5.07-5.057243s5.07 2.022897 5.07 5.057243v10.114486h10.14c3.042 0 5.07 2.022897 5.07 5.057243z" mask="url(#d)" opacity=".9" transform="matrix(.5591929 .82903757 -.82903757 .5591929 668.901921 -667.588526)"/><path d="m746.961223 1061.52537c.372223.36818.372223 1.10454.372223 1.47273v44.18181c0 6.25909-4.838889 11.04546-11.166667 11.04546h-44.666667c-6.327778 0-11.166666-4.78637-11.166666-11.04546v-58.90909c0-6.25909 4.838888-11.04545 11.166666-11.04545h29.777778c.372222 0 1.116667 0 1.488889.36818.372222 0 .744444.36818 1.116667.73636l22.333333 22.09091c.372222.36818.372222.73637.744444 1.10455zm-21.833492-11.80935v9.46262h9.571429zm10.829388 61.31776c2.23151 0 3.719184-1.47196 3.719184-3.67991v-40.47897h-18.595919c-2.23151 0-3.719183-1.47196-3.719183-3.67991v-18.39953h-26.034286c-2.23151 0-3.719184 1.47196-3.719184 3.67991v58.8785c0 2.20795 1.487674 3.67991 3.719184 3.67991zm-7.383673-22.33178c0 2.21426-1.493143 3.69042-3.732858 3.69042h-7.465714v7.38085c0 2.21425-1.493143 3.69042-3.732857 3.69042s-3.732857-1.47617-3.732857-3.69042v-7.38085h-7.465714c-2.239715 0-3.732858-1.47616-3.732858-3.69042 0-2.21425 1.493143-3.69042 3.732858-3.69042h7.465714v-7.38084c0-2.21425 1.493143-3.69042 3.732857-3.69042s3.732857 1.47617 3.732857 3.69042v7.38084h7.465714c2.239715 0 3.732858 1.47617 3.732858 3.69042z" mask="url(#d)" opacity=".88" transform="matrix(-.89100652 -.4539905 .4539905 -.89100652 860.586625 2362.059305)"/><path d="m783.783176 909.579151c.472222.468182.472222 1.404546.472222 1.872728v56.181818c0 7.959091-6.138889 14.045454-14.166667 14.045454h-56.666667c-8.027777 0-14.166666-6.086363-14.166666-14.045454v-74.909091c0-7.959091 6.138889-14.045455 14.166666-14.045455h37.777778c.472222 0 1.416667 0 1.888889.468182.472222 0 .944445.468182 1.416667.936364l28.333333 28.090909c.472222.468182.472222.936364.944445 1.404545zm-27.699207-15.016822v12.03271h12.142857zm13.738776 77.971963c2.83102 0 4.718367-1.871755 4.718367-4.679388v-51.47326h-23.591837c-2.83102 0-4.718367-1.871755-4.718367-4.679388v-23.396936h-33.028571c-2.831021 0-4.718368 1.871755-4.718368 4.679387v74.870197c0 2.807633 1.887347 4.679388 4.718368 4.679388zm-9.367347-28.397197c0 2.815655-1.894286 4.692757-4.735715 4.692757h-9.471428v9.385514c0 2.815655-1.894286 4.692757-4.735714 4.692757-2.841429 0-4.735715-1.877102-4.735715-4.692757v-9.385514h-9.471428c-2.841429 0-4.735715-1.877102-4.735715-4.692757 0-2.815654 1.894286-4.692757 4.735715-4.692757h9.471428v-9.385514c0-2.815654 1.894286-4.692757 4.735715-4.692757 2.841428 0 4.735714 1.877103 4.735714 4.692757v9.385514h9.471428c2.841429 0 4.735715 1.877103 4.735715 4.692757z" mask="url(#d)" opacity=".93" transform="matrix(-.78801075 .61566148 -.61566148 -.78801075 1898.942097 1206.500102)"/><path d="m747.418898 764.239478c.605556.6.605556 1.8.605556 2.4v72c0 10.2-7.872222 18-18.166667 18h-72.666667c-10.294444 0-18.166666-7.8-18.166666-18v-96c0-10.2 7.872222-18 18.166666-18h48.444445c.605555 0 1.816667 0 2.422222.6.605556 0 1.211111.6 1.816667 1.2l36.333333 36c.605556.6.605556 1.2 1.211111 1.8zm-35.520158-19.244859v15.42056h15.571428zm17.617959 99.925233c3.630367 0 6.050612-2.398754 6.050612-5.996884v-65.965733h-30.253061c-3.630368 0-6.050613-2.398753-6.050613-5.996884v-29.984424h-42.354285c-3.630368 0-6.050612 2.398754-6.050612 5.996885v95.950156c0 3.59813 2.420244 5.996884 6.050612 5.996884zm-12.012245-36.392523c0 3.608411-2.429143 6.014019-6.072857 6.014019h-12.145715v12.028037c0 3.608411-2.429142 6.014019-6.072857 6.014019-3.643714 0-6.072857-2.405608-6.072857-6.014019v-12.028037h-12.145714c-3.643714 0-6.072857-2.405608-6.072857-6.014019s2.429143-6.014019 6.072857-6.014019h12.145714v-12.028037c0-3.608411 2.429143-6.014019 6.072857-6.014019 3.643715 0 6.072857 2.405608 6.072857 6.014019v12.028037h12.145715c3.643714 0 6.072857 2.405608 6.072857 6.014019z" mask="url(#d)" opacity=".74" transform="matrix(-.8660254 -.5 .5 -.8660254 898.81451 1822.115578)"/><path d="m821.20429 470.929311c.544445.545455.544445 1.636364.544445 2.181818v65.454546c0 9.272727-7.077778 16.363636-16.333334 16.363636h-65.333333c-9.255556 0-16.333333-7.090909-16.333333-16.363636v-87.272727c0-9.272728 7.077777-16.363637 16.333333-16.363637h43.555556c.544444 0 1.633333 0 2.177777.545455.544445 0 1.088889.545454 1.633334 1.090909l32.666666 32.727273c.544445.545454.544445 1.090909 1.088889 1.636363zm-31.935555-17.495327v14.018692h14zm15.84 90.841122c3.264 0 5.44-2.180686 5.44-5.451714v-59.968847h-27.2c-3.264 0-5.44-2.180686-5.44-5.451714v-27.258567h-38.08c-3.264 0-5.44 2.180686-5.44 5.451714v87.227414c0 3.271028 2.176 5.451714 5.44 5.451714zm-10.8-33.084113c0 3.280374-2.184 5.46729-5.46 5.46729h-10.92v10.93458c0 3.280373-2.184 5.467289-5.46 5.467289s-5.46-2.186916-5.46-5.467289v-10.93458h-10.92c-3.276 0-5.46-2.186916-5.46-5.46729 0-3.280373 2.184-5.467289 5.46-5.467289h10.92v-10.93458c0-3.280374 2.184-5.467289 5.46-5.467289s5.46 2.186915 5.46 5.467289v10.93458h10.92c3.276 0 5.46 2.186916 5.46 5.467289z" mask="url(#d)" opacity=".74" transform="matrix(-.7193398 -.69465837 .69465837 -.7193398 984.810867 1387.74804)"/><path d="m706.504622 411.565668c.366667.368182.366667 1.104546.366667 1.472728v44.181818c0 6.259091-4.766667 11.045454-11 11.045454h-44c-6.233334 0-11-4.786363-11-11.045454v-58.909091c0-6.259091 4.766666-11.045455 11-11.045455h29.333333c.366667 0 1.1 0 1.466667.368182.366666 0 .733333.368182 1.1.736364l22 22.090909c.366666.368182.366666.736363.733333 1.104545zm-21.507619-11.809345v9.462616h9.428571zm10.667755 61.317757c2.198204 0 3.663673-1.471963 3.663673-3.679907v-40.478972h-18.318367c-2.198204 0-3.663673-1.471963-3.663673-3.679907v-18.399532h-25.645715c-2.198204 0-3.663673 1.471962-3.663673 3.679906v58.878505c0 2.207944 1.465469 3.679907 3.663673 3.679907zm-7.273469-22.331776c0 2.214252-1.470858 3.69042-3.677143 3.69042h-7.354286v7.380841c0 2.214253-1.470857 3.690421-3.677143 3.690421s-3.677143-1.476168-3.677143-3.690421v-7.380841h-7.354285c-2.206286 0-3.677143-1.476168-3.677143-3.69042 0-2.214253 1.470857-3.690421 3.677143-3.690421h7.354285v-7.380841c0-2.214252 1.470857-3.69042 3.677143-3.69042s3.677143 1.476168 3.677143 3.69042v7.380841h7.354286c2.206285 0 3.677143 1.476168 3.677143 3.690421z" mask="url(#d)" opacity=".89" transform="matrix(-.48480962 .87461971 -.87461971 -.48480962 1374.702856 45.76947)"/><path d="m512.681643 1064.91453c.477777.47727.477777 1.43182.477777 1.90909v57.27273c0 8.11363-6.211111 14.31818-14.333333 14.31818h-57.333333c-8.122223 0-14.333334-6.20455-14.333334-14.31818v-76.36364c0-8.11364 6.211111-14.31818 14.333334-14.31818h38.222222c.477778 0 1.433333 0 1.911111.47727.477778 0 .955556.47727 1.433333.95455l28.666667 28.63636c.477778.47727.477778.95455.955556 1.43182zm-28.02508-15.30841v12.26635h12.285714zm13.900408 79.48598c2.864327 0 4.773878-1.9081 4.773878-4.77025v-52.47274h-23.869388c-2.864326 0-4.773877-1.9081-4.773877-4.77025v-23.85125h-33.417143c-2.864327 0-4.773878 1.9081-4.773878 4.77025v76.32399c0 2.86215 1.909551 4.77025 4.773878 4.77025zm-9.477551-28.9486c0 2.87033-1.916571 4.78388-4.791428 4.78388h-9.582857v9.56776c0 2.87032-1.916572 4.78387-4.791429 4.78387s-4.791429-1.91355-4.791429-4.78387v-9.56776h-9.582857c-2.874857 0-4.791428-1.91355-4.791428-4.78388s1.916571-4.78388 4.791428-4.78388h9.582857v-9.56776c0-2.87032 1.916572-4.78387 4.791429-4.78387s4.791429 1.91355 4.791429 4.78387v9.56776h9.582857c2.874857 0 4.791428 1.91355 4.791428 4.78388z" mask="url(#d)" opacity=".81" transform="matrix(.54463904 .83867057 -.83867057 .54463904 1124.816801 100.17422)"/><path d="m570.563015 937.464694c.377778.377272.377778 1.131818.377778 1.509091v45.272727c0 6.413636-4.911111 11.318182-11.333333 11.318182h-45.333334c-6.422222 0-11.333333-4.904546-11.333333-11.318182v-60.363636c0-6.413637 4.911111-11.318182 11.333333-11.318182h30.222223c.377777 0 1.133333 0 1.511111.377272.377777 0 .755555.377273 1.133333.754546l22.666667 22.636364c.377777.377272.377777.754545.755555 1.131818zm-22.159365-12.100935v9.696262h9.714286zm10.991021 62.831776c2.264816 0 3.774693-1.508308 3.774693-3.770769v-41.478452h-18.873469c-2.264816 0-3.774694-1.508308-3.774694-3.770769v-18.853842h-26.422857c-2.264816 0-3.774694 1.508307-3.774694 3.770769v60.332294c0 2.262461 1.509878 3.770769 3.774694 3.770769zm-7.493878-22.883178c0 2.268926-1.515429 3.781542-3.788571 3.781542h-7.577143v7.563084c0 2.268926-1.515429 3.781543-3.788572 3.781543s-3.788571-1.512617-3.788571-3.781543v-7.563084h-7.577143c-2.273143 0-3.788571-1.512616-3.788571-3.781542 0-2.268925 1.515428-3.781542 3.788571-3.781542h7.577143v-7.563084c0-2.268925 1.515428-3.781542 3.788571-3.781542s3.788572 1.512617 3.788572 3.781542v7.563084h7.577143c2.273142 0 3.788571 1.512617 3.788571 3.781542z" mask="url(#d)" opacity=".82" transform="matrix(.30901699 .95105652 -.95105652 .30901699 1278.386407 148.58145)"/><path d="m570.992481 657.086587c.427778.427273.427778 1.281819.427778 1.709091v51.272728c0 7.263636-5.561111 12.818181-12.833333 12.818181h-51.333334c-7.272222 0-12.833333-5.554545-12.833333-12.818181v-68.363637c0-7.263636 5.561111-12.818182 12.833333-12.818182h34.222223c.427777 0 1.283333 0 1.711111.427273.427777 0 .855555.427273 1.283333.854546l25.666667 25.636363c.427777.427273.427777.854546.855555 1.281818zm-25.092222-13.704672v10.981308h11zm12.445714 71.158878c2.564572 0 4.274286-1.708203 4.274286-4.270509v-46.975597h-21.371429c-2.564571 0-4.274285-1.708203-4.274285-4.270509v-21.352544h-29.92c-2.564572 0-4.274286 1.708204-4.274286 4.270509v68.328141c0 2.562306 1.709714 4.270509 4.274286 4.270509zm-8.485714-25.915888c0 2.569626-1.716 4.282711-4.29 4.282711h-8.58v8.56542c0 2.569626-1.716 4.28271-4.29 4.28271s-4.29-1.713084-4.29-4.28271v-8.56542h-8.58c-2.574 0-4.29-1.713085-4.29-4.282711s1.716-4.28271 4.29-4.28271h8.58v-8.565421c0-2.569626 1.716-4.28271 4.29-4.28271s4.29 1.713084 4.29 4.28271v8.565421h8.58c2.574 0 4.29 1.713084 4.29 4.28271z" mask="url(#d)" opacity=".79" transform="matrix(.9781476 .20791169 -.20791169 .9781476 152.170309 -96.030609)"/><path d="m627.647917 458.882845c.411111.409091.411111 1.227272.411111 1.636363v49.090909c0 6.954546-5.344444 12.272728-12.333333 12.272728h-49.333334c-6.988889 0-12.333333-5.318182-12.333333-12.272728v-65.454545c0-6.954545 5.344444-12.272727 12.333333-12.272727h32.888889c.411111 0 1.233334 0 1.644445.409091.411111 0 .822222.409091 1.233333.818181l24.666667 24.545455c.411111.409091.411111.818182.822222 1.227273zm-24.114603-13.121496v10.514019h10.571428zm11.960816 68.130842c2.464653 0 4.107755-1.635514 4.107755-4.088786v-44.976635h-20.538775c-2.464653 0-4.107755-1.635514-4.107755-4.088785v-20.443925h-28.754286c-2.464653 0-4.107755 1.635514-4.107755 4.088785v65.42056c0 2.453272 1.643102 4.088786 4.107755 4.088786zm-8.155102-24.813085c0 2.460281-1.649143 4.100468-4.122857 4.100468h-8.245714v8.200934c0 2.460281-1.649143 4.100468-4.122858 4.100468-2.473714 0-4.122857-1.640187-4.122857-4.100468v-8.200934h-8.245714c-2.473714 0-4.122857-1.640187-4.122857-4.100468 0-2.46028 1.649143-4.100467 4.122857-4.100467h8.245714v-8.200934c0-2.460281 1.649143-4.100468 4.122857-4.100468 2.473715 0 4.122858 1.640187 4.122858 4.100468v8.200934h8.245714c2.473714 0 4.122857 1.640187 4.122857 4.100467z" mask="url(#d)" opacity=".9" transform="matrix(-.57357644 -.81915204 .81915204 -.57357644 539.437002 1234.578819)"/><path d="m541.467404 393.752088c.5.495455.5 1.486364.5 1.981819v59.454545c0 8.422727-6.5 14.863636-15 14.863636h-60c-8.5 0-15-6.440909-15-14.863636v-79.272727c0-8.422727 6.5-14.863637 15-14.863637h40c.5 0 1.5 0 2 .495455.5 0 1 .495455 1.5.990909l30 29.727273c.5.495454.5.990909 1 1.486363zm-29.328572-15.891588v12.733645h12.857143zm14.546939 82.514018c2.997551 0 4.995918-1.980789 4.995918-4.951973v-54.471703h-24.979592c-2.997551 0-4.995918-1.980789-4.995918-4.951973v-24.759865h-34.971429c-2.997551 0-4.995918 1.98079-4.995918 4.951973v79.231568c0 2.971184 1.998367 4.951973 4.995918 4.951973zm-9.918367-30.051401c0 2.979672-2.005715 4.966121-5.014286 4.966121h-10.028572v9.932243c0 2.979673-2.005714 4.966122-5.014285 4.966122-3.008572 0-5.014286-1.986449-5.014286-4.966122v-9.932243h-10.028571c-3.008572 0-5.014286-1.986449-5.014286-4.966121 0-2.979673 2.005714-4.966122 5.014286-4.966122h10.028571v-9.932243c0-2.979673 2.005714-4.966121 5.014286-4.966121 3.008571 0 5.014285 1.986448 5.014285 4.966121v9.932243h10.028572c3.008571 0 5.014286 1.986449 5.014286 4.966122z" mask="url(#d)" opacity=".79" transform="matrix(.2419219 -.97029573 .97029573 .2419219 -26.468307 797.226287)"/><path d="m562.835328 281.857818c.388889.386364.388889 1.159091.388889 1.545455v46.363636c0 6.568182-5.055556 11.590909-11.666667 11.590909h-46.666666c-6.611111 0-11.666667-5.022727-11.666667-11.590909v-61.818182c0-6.568181 5.055556-11.590909 11.666667-11.590909h31.111111c.388889 0 1.166666 0 1.555555.386364.388889 0 .777778.386364 1.166667.772727l23.333333 23.181818c.388889.386364.388889.772728.777778 1.159091zm-22.811111-12.392523v9.929907h10zm11.314286 64.345794c2.331428 0 3.885714-1.544652 3.885714-3.86163v-42.477933h-19.428571c-2.331429 0-3.885715-1.544653-3.885715-3.861631v-19.308151h-27.2c-2.331428 0-3.885714 1.544652-3.885714 3.86163v61.786085c0 2.316978 1.554286 3.86163 3.885714 3.86163zm-7.714286-23.434579c0 2.323598-1.56 3.872663-3.9 3.872663h-7.8v7.745328c0 2.323598-1.56 3.872663-3.9 3.872663s-3.9-1.549065-3.9-3.872663v-7.745328h-7.8c-2.34 0-3.9-1.549065-3.9-3.872663s1.56-3.872664 3.9-3.872664h7.8v-7.745327c0-2.323598 1.56-3.872663 3.9-3.872663s3.9 1.549065 3.9 3.872663v7.745327h7.8c2.34 0 3.9 1.549066 3.9 3.872664z" mask="url(#d)" opacity=".85" transform="matrix(.9945219 .10452846 -.10452846 .9945219 34.132816 -53.577291)"/><path d="m319.263966 984.175627c.561111.559091.561111 1.677273.561111 2.236364v67.090909c0 9.50455-7.294445 16.77273-16.833333 16.77273h-67.333334c-9.538889 0-16.833333-7.26818-16.833333-16.77273v-89.454546c0-9.504545 7.294444-16.772727 16.833333-16.772727h44.888889c.561111 0 1.683333 0 2.244445.559091.561111 0 1.122222.559091 1.683333 1.118182l33.666667 33.545454c.561111.559091.561111 1.118182 1.122222 1.677273zm-32.913175-17.93271v14.369159h14.428572zm16.324898 93.112153c3.363919 0 5.606531-2.23521 5.606531-5.58801v-61.468068h-28.032653c-3.363919 0-5.606531-2.235203-5.606531-5.588007v-27.940031h-39.245714c-3.363919 0-5.606531 2.235203-5.606531 5.588006v89.4081c0 3.3528 2.242612 5.58801 5.606531 5.58801zm-11.130612-33.91122c0 3.36238-2.250857 5.60397-5.627143 5.60397h-11.254286v11.20795c0 3.36238-2.250857 5.60397-5.627143 5.60397-3.376285 0-5.627142-2.24159-5.627142-5.60397v-11.20795h-11.254286c-3.376286 0-5.627143-2.24159-5.627143-5.60397s2.250857-5.60397 5.627143-5.60397h11.254286v-11.20794c0-3.36239 2.250857-5.60398 5.627142-5.60398 3.376286 0 5.627143 2.24159 5.627143 5.60398v11.20794h11.254286c3.376286 0 5.627143 2.24159 5.627143 5.60397z" mask="url(#d)" opacity=".85" transform="matrix(.7313537 -.68199836 .68199836 .7313537 -615.630138 454.683099)"/><path d="m391.786459 817.543248c.405555.404545.405555 1.213636.405555 1.618182v48.545454c0 6.877273-5.272222 12.136364-12.166666 12.136364h-48.666667c-6.894444 0-12.166667-5.259091-12.166667-12.136364v-64.727272c0-6.877273 5.272223-12.136364 12.166667-12.136364h32.444444c.405556 0 1.216667 0 1.622223.404545.405555 0 .811111.404546 1.216666.809091l24.333334 24.272728c.405555.404545.405555.809091.811111 1.213636zm-23.78873-12.975701v10.397196h10.428571zm11.799183 67.373832c2.431347 0 4.052245-1.617342 4.052245-4.043354v-44.476895h-20.261224c-2.431347 0-4.052245-1.617342-4.052245-4.043354v-20.216771h-28.365714c-2.431347 0-4.052245 1.617342-4.052245 4.043354v64.693666c0 2.426012 1.620898 4.043354 4.052245 4.043354zm-8.044898-24.537383c0 2.432944-1.626857 4.054906-4.067142 4.054906h-8.134286v8.109813c0 2.432944-1.626857 4.054907-4.067143 4.054907s-4.067143-1.621963-4.067143-4.054907v-8.109813h-8.134286c-2.440285 0-4.067142-1.621962-4.067142-4.054906s1.626857-4.054907 4.067142-4.054907h8.134286v-8.109813c0-2.432944 1.626857-4.054906 4.067143-4.054906s4.067143 1.621962 4.067143 4.054906v8.109813h8.134286c2.440285 0 4.067142 1.621963 4.067142 4.054907z" mask="url(#d)" opacity=".9" transform="matrix(-.9612617 .27563736 -.27563736 -.9612617 927.856927 1540.284709)"/><path d="m325.452237 670.590219c.511111.504546.511111 1.513637.511111 2.018182v60.545455c0 8.577272-6.644444 15.136363-15.333333 15.136363h-61.333333c-8.688889 0-15.333334-6.559091-15.333334-15.136363v-80.727273c0-8.577273 6.644445-15.136364 15.333334-15.136364h40.888889c.511111 0 1.533333 0 2.044444.504546.511111 0 1.022222.504545 1.533333 1.009091l30.666667 30.272727c.511111.504545.511111 1.009091 1.022222 1.513636zm-29.980317-16.183177v12.967289h13.142857zm14.870204 84.028037c3.064163 0 5.106939-2.017134 5.106939-5.042835v-55.471184h-25.534694c-3.064163 0-5.106939-2.017134-5.106939-5.042835v-25.214174h-35.748571c-3.064164 0-5.106939 2.017134-5.106939 5.042835v80.685358c0 3.025701 2.042775 5.042835 5.106939 5.042835zm-10.138776-30.602804c0 3.034346-2.050285 5.057243-5.125714 5.057243h-10.251428v10.114486c0 3.034346-2.050286 5.057243-5.125715 5.057243-3.075428 0-5.125714-2.022897-5.125714-5.057243v-10.114486h-10.251429c-3.075428 0-5.125714-2.022897-5.125714-5.057243 0-3.034345 2.050286-5.057243 5.125714-5.057243h10.251429v-10.114486c0-3.034345 2.050286-5.057243 5.125714-5.057243 3.075429 0 5.125715 2.022898 5.125715 5.057243v10.114486h10.251428c3.075429 0 5.125714 2.022898 5.125714 5.057243z" mask="url(#d)" opacity=".79" transform="matrix(-.190809 .98162718 -.98162718 -.190809 1013.444585 550.161192)"/><path d="m392.295472 436.224829c.505556.504545.505556 1.513636.505556 2.018182v60.545454c0 8.577273-6.572223 15.136364-15.166667 15.136364h-60.666667c-8.594444 0-15.166666-6.559091-15.166666-15.136364v-80.727273c0-8.577272 6.572222-15.136363 15.166666-15.136363h40.444445c.505555 0 1.516666 0 2.022222.504545.505556 0 1.011111.504546 1.516667 1.009091l30.333333 30.272727c.505556.504546.505556 1.009091 1.011111 1.513637zm-29.654444-16.183178v12.96729h13zm14.708571 84.028038c3.030857 0 5.051429-2.017134 5.051429-5.042835v-55.471184h-25.257143c-3.030857 0-5.051429-2.017134-5.051429-5.042835v-25.214174h-35.36c-3.030857 0-5.051428 2.017134-5.051428 5.042834v80.685359c0 3.025701 2.020571 5.042835 5.051428 5.042835zm-10.028571-30.602804c0 3.034346-2.028 5.057243-5.07 5.057243h-10.14v10.114486c0 3.034346-2.028 5.057243-5.07 5.057243s-5.07-2.022897-5.07-5.057243v-10.114486h-10.14c-3.042 0-5.07-2.022897-5.07-5.057243s2.028-5.057243 5.07-5.057243h10.14v-10.114486c0-3.034346 2.028-5.057243 5.07-5.057243s5.07 2.022897 5.07 5.057243v10.114486h10.14c3.042 0 5.07 2.022897 5.07 5.057243z" mask="url(#d)" opacity=".9" transform="matrix(.82903757 .5591929 -.5591929 .82903757 315.723338 -115.834849)"/></g></g></g></svg>